<?xml version="1.0" encoding="UTF-8" standalone="no"?>
<!-- translate-xy="150,138" -->

<svg
   xmlns:dc="http://purl.org/dc/elements/1.1/"
   xmlns:cc="http://creativecommons.org/ns#"
   xmlns:rdf="http://www.w3.org/1999/02/22-rdf-syntax-ns#"
   xmlns:svg="http://www.w3.org/2000/svg"
   xmlns="http://www.w3.org/2000/svg"
   xmlns:sodipodi="http://sodipodi.sourceforge.net/DTD/sodipodi-0.dtd"
   xmlns:inkscape="http://www.inkscape.org/namespaces/inkscape"
   width="300"
   height="300"
   viewBox="0 0 300 300"
   version="1.1"
   id="svg8"
   sodipodi:docname="traditional-no-frame.svg"
   inkscape:version="0.92.3 (2405546, 2018-03-11)">
  <metadata
     id="metadata14">
    <rdf:RDF>
      <cc:Work
         rdf:about="">
        <dc:format>image/svg+xml</dc:format>
        <dc:type
           rdf:resource="http://purl.org/dc/dcmitype/StillImage" />
        <dc:title></dc:title>
      </cc:Work>
    </rdf:RDF>
  </metadata>
  <defs
     id="defs12" />
  <sodipodi:namedview
     pagecolor="#ffffff"
     bordercolor="#666666"
     borderopacity="1"
     objecttolerance="10"
     gridtolerance="10"
     guidetolerance="10"
     inkscape:pageopacity="0"
     inkscape:pageshadow="2"
     inkscape:window-width="1280"
     inkscape:window-height="737"
     id="namedview10"
     showgrid="false"
     inkscape:zoom="1.5733333"
     inkscape:cx="184.76554"
     inkscape:cy="177.89305"
     inkscape:window-x="-8"
     inkscape:window-y="-8"
     inkscape:window-maximized="1"
     inkscape:current-layer="svg8"
     inkscape:showpageshadow="false" />
 <g transform="translate(57, 205) rotate(55) "> <g
     aria-label="M"
     transform="scale(0.96574472,1.0354703)"
     style="font-style:normal;font-weight:normal;font-size:10.42695618px;line-height:1.25;font-family:sans-serif;letter-spacing:0px;word-spacing:0px;fill:#000000;fill-opacity:1;stroke:none;stroke-width:0.26067385"
     id="text826">
    <path
       d="M 6.0517508,0.87594706 H 0.85623404 V 24.223701 H 4.7368361 V 16.815279 L 4.528374,6.5525302 7.527021,16.783208 H 9.643713 L 12.979107,6.135606 12.770644,16.815279 v 7.408422 h 3.880602 V 0.87594706 H 11.45573 L 8.6014026,10.256741 Z"
       style="font-style:normal;font-variant:normal;font-weight:bold;font-stretch:normal;font-size:32.84079742px;font-family:'Roboto Mono';-inkscape-font-specification:'Roboto Mono Bold';fill:#000000;fill-opacity:1;stroke-width:0.26067385"
       id="path815" />
  </g>

 </g><g transform="translate(67.5, 220) rotate(45) "> <g
     aria-label="E"
     transform="scale(0.97300881,1.0277399)"
     style="font-style:normal;font-weight:normal;font-size:10.50538445px;line-height:1.25;font-family:sans-serif;letter-spacing:0px;word-spacing:0px;fill:#000000;fill-opacity:1;stroke:none;stroke-width:0.26263455"
     id="text826">
    <path
       d="M 14.845085,13.985181 V 10.608543 H 5.1513887 V 4.3399526 H 16.412233 V 0.88253406 H 0.91847447 V 24.405905 H 16.476858 V 20.980799 H 5.1513887 v -6.995618 z"
       style="font-style:normal;font-variant:normal;font-weight:bold;font-stretch:normal;font-size:33.08781815px;font-family:'Roboto Mono';-inkscape-font-specification:'Roboto Mono Bold';fill:#000000;fill-opacity:1;stroke-width:0.26263455"
       id="path815" />
  </g>

 </g><g transform="translate(81, 233.8) rotate(35) "> <g
     aria-label="M"
     transform="scale(0.96574472,1.0354703)"
     style="font-style:normal;font-weight:normal;font-size:10.42695618px;line-height:1.25;font-family:sans-serif;letter-spacing:0px;word-spacing:0px;fill:#000000;fill-opacity:1;stroke:none;stroke-width:0.26067385"
     id="text826">
    <path
       d="M 6.0517508,0.87594706 H 0.85623404 V 24.223701 H 4.7368361 V 16.815279 L 4.528374,6.5525302 7.527021,16.783208 H 9.643713 L 12.979107,6.135606 12.770644,16.815279 v 7.408422 h 3.880602 V 0.87594706 H 11.45573 L 8.6014026,10.256741 Z"
       style="font-style:normal;font-variant:normal;font-weight:bold;font-stretch:normal;font-size:32.84079742px;font-family:'Roboto Mono';-inkscape-font-specification:'Roboto Mono Bold';fill:#000000;fill-opacity:1;stroke-width:0.26067385"
       id="path815" />
  </g>

 </g><g transform="translate(96.5, 244.5) rotate(25) "> <g
     aria-label="O"
     transform="scale(0.94275316,1.060723)"
     style="font-style:normal;font-weight:normal;font-size:9.94822502px;line-height:1.25;font-family:sans-serif;letter-spacing:0px;word-spacing:0px;fill:#000000;fill-opacity:1;stroke:none;stroke-width:0.24870555"
     id="text826">
    <path
       d="m 17.171996,13.841038 v -3.09046 Q 17.156697,9.2971433 16.896608,7.9814027 16.63652,6.6656621 16.131643,5.5335133 15.657364,4.5084596 14.984195,3.6516982 14.311025,2.7796376 13.423665,2.1676653 12.536305,1.5403936 11.404156,1.1885095 10.287307,0.83662538 8.9868655,0.83662538 q -1.3004413,0 -2.3866922,0.35188412 Q 5.5139223,1.5250943 4.6418617,2.152366 3.7545018,2.7949369 3.0813322,3.6822969 2.4234619,4.5543575 1.9644827,5.6253091 1.4902041,6.7421587 1.2454151,8.0425999 1.0159255,9.3430412 1.0006262,10.750578 v 3.09046 q 0.015299,1.346339 0.2294896,2.585583 0.2141903,1.223945 0.642571,2.294897 0.4589793,1.147448 1.1474482,2.080706 0.6884689,0.917958 1.5605295,1.575829 0.9026592,0.64257 2.0042095,0.994455 1.1015502,0.351884 2.4172908,0.351884 1.2545432,0 2.3254952,-0.321286 1.070951,-0.321285 1.958311,-0.902659 0.948558,-0.642571 1.682924,-1.56053 0.734367,-0.933257 1.223945,-2.050107 0.474279,-1.10155 0.719068,-2.371393 0.244789,-1.285142 0.260088,-2.677379 z m -4.039018,-3.121059 v 3.121059 q 0,0.826163 -0.0918,1.621727 -0.0765,0.780265 -0.260088,1.453434 -0.21419,0.841462 -0.581374,1.514632 -0.351884,0.673169 -0.87206,1.132149 -0.44368,0.413081 -1.025054,0.627271 -0.5813737,0.214191 -1.3004412,0.214191 -0.7496661,0 -1.3310399,-0.22949 Q 7.1050505,19.945462 6.6766698,19.532381 6.2023913,19.088701 5.8658065,18.400232 5.5292217,17.696464 5.3456299,16.885601 5.1773375,16.197132 5.100841,15.432166 5.0396438,14.651901 5.0396438,13.841038 v -3.121059 q 0,-0.841462 0.076496,-1.637026 Q 5.1926369,8.2873889 5.3609293,7.5836207 5.5598203,6.7268594 5.9117044,6.0536898 6.2788878,5.3805202 6.8143636,4.9215409 7.227445,4.5696568 7.7629208,4.3860651 q 0.5354758,-0.198891 1.2239447,-0.198891 0.7037682,0 1.2545435,0.2141903 0.566074,0.198891 1.009754,0.5507751 0.535476,0.4589793 0.902659,1.1321489 0.382483,0.6731696 0.611973,1.4993323 0.198891,0.7037682 0.275387,1.4993323 0.0918,0.795564 0.0918,1.637026 z"
       style="font-style:normal;font-variant:normal;font-weight:bold;font-stretch:normal;font-size:31.33298492px;font-family:'Roboto Mono';-inkscape-font-specification:'Roboto Mono Bold';fill:#000000;fill-opacity:1;stroke-width:0.24870555"
       id="path815" />
  </g>

 </g><g transform="translate(114, 252) rotate(15) "> <g
     aria-label="R"
     transform="scale(0.94374805,1.0596048)"
     style="font-style:normal;font-weight:normal;font-size:10.18946171px;line-height:1.25;font-family:sans-serif;letter-spacing:0px;word-spacing:0px;fill:#000000;fill-opacity:1;stroke:none;stroke-width:0.25473648"
     id="text826">
    <path
       d="m 8.6500265,14.990609 4.3250045,8.68135 h 4.372016 v -0.203714 l -4.889136,-9.480536 q 0.940219,-0.423098 1.692393,-1.002899 0.767845,-0.579802 1.331976,-1.363317 0.532791,-0.752175 0.830527,-1.7237339 0.297735,-0.971559 0.297735,-2.1625024 0,-1.7080634 -0.595471,-2.9930286 Q 15.435269,3.4572629 14.354018,2.6110663 13.257097,1.7491995 11.752747,1.3104309 10.248398,0.85599196 8.4149719,0.85599196 H 0.95590577 V 23.671959 H 5.0458559 v -8.68135 z M 5.0458559,11.652833 V 4.178097 h 3.369116 q 0.9402184,0 1.6767231,0.2350546 0.736504,0.2350546 1.269295,0.6738232 0.564131,0.4701093 0.846196,1.2066137 0.297736,0.7208341 0.297736,1.6610525 0,0.814856 -0.250725,1.4730089 -0.235054,0.6424821 -0.689493,1.0969211 -0.532791,0.548461 -1.331976,0.846197 -0.7835158,0.282065 -1.7864155,0.282065 z"
       style="font-style:normal;font-variant:normal;font-weight:bold;font-stretch:normal;font-size:32.0927887px;font-family:'Roboto Mono';-inkscape-font-specification:'Roboto Mono Bold';fill:#000000;fill-opacity:1;stroke-width:0.25473648"
       id="path815" />
  </g>

 </g><g transform="translate(132.5, 257) rotate(5) "> <g
     aria-label="Y"
     transform="scale(0.91076072,1.0979832)"
     style="font-style:normal;font-weight:normal;font-size:9.83330441px;line-height:1.25;font-family:sans-serif;letter-spacing:0px;word-spacing:0px;fill:#000000;fill-opacity:1;stroke:none;stroke-width:0.24583255"
     id="text826">
    <path
       d="M 9.17172,11.169915 4.6954382,0.82607406 H 0.34013693 L 7.1604177,14.950558 l 0.030245,7.893984 h 3.8865011 l 0.01512,-7.742758 6.911016,-14.27570994 h -4.355301 z"
       style="font-style:normal;font-variant:normal;font-weight:bold;font-stretch:normal;font-size:30.97103119px;font-family:'Roboto Mono';-inkscape-font-specification:'Roboto Mono Bold';fill:#000000;fill-opacity:1;stroke-width:0.24583255"
       id="path815" />
  </g>

 </g><g transform="translate(169.5, 256.5) rotate(-15) "> <g
     aria-label="C"
     transform="scale(0.94208953,1.0614702)"
     style="font-style:normal;font-weight:normal;font-size:9.9159708px;line-height:1.25;font-family:sans-serif;letter-spacing:0px;word-spacing:0px;fill:#000000;fill-opacity:1;stroke:none;stroke-width:0.2478992"
     id="text826">
    <path
       d="m 17.044022,16.451345 h -3.980174 q -0.07625,1.00648 -0.365993,1.753716 -0.289744,0.747235 -0.777735,1.235226 -0.48799,0.50324 -1.189477,0.747235 -0.701486,0.228746 -1.6012188,0.228746 -0.7167361,0 -1.2809752,-0.182996 Q 7.2994595,20.050275 6.8419684,19.699532 6.4302263,19.364038 6.1099825,18.876048 5.8049884,18.388057 5.5914925,17.793319 5.3017481,17.000334 5.1645007,15.993853 5.0272534,14.987373 5.0272534,13.767396 v -3.049941 q 0,-0.9454816 0.091498,-1.7994652 Q 5.2102498,8.0640063 5.4237457,7.3472701 5.667741,6.4475375 6.0947328,5.7613007 6.5217245,5.0598142 7.1317128,4.6633219 7.5282051,4.3735775 8.0314454,4.2210804 q 0.51849,-0.152497 1.1132286,-0.152497 0.991231,0 1.692717,0.2744947 0.716736,0.2744947 1.189477,0.8082344 0.472741,0.5337397 0.716737,1.3114747 0.259245,0.7624853 0.335493,1.7537162 h 3.980173 Q 16.891525,6.5085363 16.312036,5.1360628 15.732547,3.7635892 14.741316,2.8181075 13.750085,1.857376 12.347112,1.338886 10.944139,0.820396 9.144674,0.820396 q -1.2657256,0 -2.3484547,0.3354935 Q 5.7134901,1.4761334 4.8290072,2.0861216 3.8377763,2.7723584 3.075291,3.7483395 2.3280554,4.7243207 1.8553145,5.9595469 1.4283228,7.0117766 1.2148269,8.2317531 1.001331,9.4364798 1.001331,10.747955 v 3.019441 q 0,1.387724 0.2287456,2.653449 0.2287456,1.265726 0.6709871,2.333205 0.4422414,1.082729 1.0979788,1.982462 0.670987,0.884483 1.5249706,1.52497 0.9149823,0.670988 2.07396,1.03698 1.1589776,0.365993 2.5314511,0.365993 1.7079668,0 3.1109398,-0.50324 1.402973,-0.51849 2.424703,-1.463972 1.021731,-0.945481 1.631719,-2.272206 0.609988,-1.326724 0.747236,-2.973692 z"
       style="font-style:normal;font-variant:normal;font-weight:bold;font-stretch:normal;font-size:31.23139763px;font-family:'Roboto Mono';-inkscape-font-specification:'Roboto Mono Bold';fill:#000000;fill-opacity:1;stroke-width:0.2478992"
       id="path815" />
  </g>

 </g><g transform="translate(188, 251.6) rotate(-25) "> <g
     aria-label="A"
     transform="matrix(0.93184692,0,0,1.0979832,-0.0696722,0)"
     style="font-style:normal;font-weight:normal;font-size:9.83330441px;line-height:1.25;font-family:sans-serif;letter-spacing:0px;word-spacing:0px;fill:#000000;fill-opacity:1;stroke:none;stroke-width:0.24583255"
     id="text826">
    <path
       d="m 12.433576,18.020441 1.376155,4.824101 h 4.314553 L 11.077164,0.82607406 H 7.5384821 L 0.34013693,22.844542 H 4.6698129 L 6.0610897,18.020441 Z M 7.044057,14.648107 9.2927006,6.6384133 11.480854,14.648107 Z"
       style="font-style:normal;font-variant:normal;font-weight:bold;font-stretch:normal;font-size:30.97103119px;font-family:'Roboto Mono';-inkscape-font-specification:'Roboto Mono Bold';fill:#000000;fill-opacity:1;stroke-width:0.24583255"
       id="path815"
       inkscape:connector-curvature="0"
       sodipodi:nodetypes="ccccccccccccc" />
  </g>

 </g><g transform="translate(205, 243.5) rotate(-35) "> <g
     aria-label="R"
     transform="scale(0.94374805,1.0596048)"
     style="font-style:normal;font-weight:normal;font-size:10.18946171px;line-height:1.25;font-family:sans-serif;letter-spacing:0px;word-spacing:0px;fill:#000000;fill-opacity:1;stroke:none;stroke-width:0.25473648"
     id="text826">
    <path
       d="m 8.6500265,14.990609 4.3250045,8.68135 h 4.372016 v -0.203714 l -4.889136,-9.480536 q 0.940219,-0.423098 1.692393,-1.002899 0.767845,-0.579802 1.331976,-1.363317 0.532791,-0.752175 0.830527,-1.7237339 0.297735,-0.971559 0.297735,-2.1625024 0,-1.7080634 -0.595471,-2.9930286 Q 15.435269,3.4572629 14.354018,2.6110663 13.257097,1.7491995 11.752747,1.3104309 10.248398,0.85599196 8.4149719,0.85599196 H 0.95590577 V 23.671959 H 5.0458559 v -8.68135 z M 5.0458559,11.652833 V 4.178097 h 3.369116 q 0.9402184,0 1.6767231,0.2350546 0.736504,0.2350546 1.269295,0.6738232 0.564131,0.4701093 0.846196,1.2066137 0.297736,0.7208341 0.297736,1.6610525 0,0.814856 -0.250725,1.4730089 -0.235054,0.6424821 -0.689493,1.0969211 -0.532791,0.548461 -1.331976,0.846197 -0.7835158,0.282065 -1.7864155,0.282065 z"
       style="font-style:normal;font-variant:normal;font-weight:bold;font-stretch:normal;font-size:32.0927887px;font-family:'Roboto Mono';-inkscape-font-specification:'Roboto Mono Bold';fill:#000000;fill-opacity:1;stroke-width:0.25473648"
       id="path815" />
  </g>

 </g><g transform="translate(220.3, 232.3) rotate(-45) "> <g
     aria-label="D"
     transform="scale(0.95087813,1.0516595)"
     style="font-style:normal;font-weight:normal;font-size:10.26644421px;line-height:1.25;font-family:sans-serif;letter-spacing:0px;word-spacing:0px;fill:#000000;fill-opacity:1;stroke:none;stroke-width:0.25666103"
     id="text826">
    <path
       d="M 0.93534977,23.850801 H 6.9350545 q 1.563081,0 2.9209089,-0.378928 1.3736166,-0.378929 2.4946136,-1.08942 0.9789,-0.615759 1.799912,-1.515715 0.821012,-0.915745 1.420983,-2.005165 0.615759,-1.168363 0.947321,-2.573557 0.331563,-1.420983 0.331563,-2.984064 v -1.863066 q 0,-1.6420246 -0.36314,-3.0945847 Q 16.139865,6.8937412 15.476739,5.6938003 14.876769,4.6201689 14.024179,3.7360019 13.187378,2.8518348 12.113747,2.2518644 10.99275,1.5887391 9.6507104,1.2255991 8.3086711,0.86245906 6.7613789,0.86245906 H 0.93534977 Z M 5.087777,4.2096628 h 1.6736019 q 0.8683783,0 1.5946583,0.205253 0.7420688,0.1894644 1.3420392,0.5368157 0.8052236,0.4578722 1.3894056,1.199941 0.59997,0.72628 0.96311,1.6578131 0.299985,0.7736462 0.442084,1.6893906 0.157887,0.8999558 0.173675,1.9104318 v 1.894644 q -0.01579,1.057843 -0.173675,1.973587 -0.142099,0.915745 -0.426295,1.673602 -0.347351,0.899956 -0.868378,1.57887 -0.505239,0.678914 -1.168364,1.120997 -0.6315478,0.426295 -1.4051939,0.663125 -0.7736462,0.221042 -1.6893906,0.221042 H 5.087777 Z"
       style="font-style:normal;font-variant:normal;font-weight:bold;font-stretch:normal;font-size:32.33525085px;font-family:'Roboto Mono';-inkscape-font-specification:'Roboto Mono Bold';fill:#000000;fill-opacity:1;stroke-width:0.25666103"
       id="path815" />
  </g>

 </g><g transform="translate(233.3, 219) rotate(-55) "> <g
     aria-label="S"
     transform="scale(0.94266038,1.0608274)"
     style="font-style:normal;font-weight:normal;font-size:9.9470911px;line-height:1.25;font-family:sans-serif;letter-spacing:0px;word-spacing:0px;fill:#000000;fill-opacity:1;stroke:none;stroke-width:0.24867721"
     id="text826">
    <path
       d="m 13.117123,17.589656 q 0,0.657795 -0.275356,1.19321 -0.275357,0.535415 -0.764879,0.902556 -0.504819,0.367142 -1.19321,0.56601 -0.68839,0.198869 -1.545054,0.198869 -0.9790442,0 -1.8051127,-0.229464 Q 6.7227403,19.991374 6.1261353,19.517149 5.5295302,19.027627 5.1776862,18.293344 4.8411397,17.559061 4.7952471,16.549422 H 0.84847512 q 0.0152976,1.667434 0.65779528,2.937132 0.6577954,1.254401 1.7745177,2.187552 1.1932101,0.963747 2.7994545,1.468566 1.6062444,0.50482 3.2583814,0.50482 1.621542,0 3.028918,-0.397737 1.422674,-0.397736 2.462908,-1.177912 1.055532,-0.780176 1.652137,-1.912196 0.611903,-1.13202 0.611903,-2.600586 0,-1.667435 -0.749581,-2.921835 -0.749581,-1.269698 -2.003981,-2.20285 Q 13.438372,11.776581 12.352244,11.302357 11.281415,10.828132 10.103502,10.491586 9.1091606,10.216229 8.2524969,9.8949805 7.4111308,9.558434 6.7839306,9.1301022 6.1567304,8.7323655 5.8048864,8.1969507 5.4683399,7.6462383 5.4683399,6.9425503 q 0,-0.6577953 0.2600587,-1.1932101 Q 5.9884572,5.1986278 6.4779793,4.8008911 6.9675014,4.418452 7.6558918,4.2042861 8.3442823,3.9901202 9.1856484,3.9901202 q 0.9484486,0 1.6674346,0.2753561 0.718986,0.2600587 1.223805,0.7342832 0.474225,0.4742245 0.734283,1.1320199 0.275357,0.6577953 0.321249,1.4532687 h 3.916177 q 0,-1.4991614 -0.596605,-2.7535618 Q 15.870685,3.5770859 14.83045,2.6745295 13.790216,1.7719732 12.352244,1.2824511 10.929571,0.77763139 9.2468386,0.77763139 q -1.6062443,0 -3.0136204,0.42833181 Q 4.8258422,1.6342951 3.7856077,2.445066 2.7300757,3.2405395 2.1181731,4.3878569 1.521568,5.5351743 1.521568,6.9425503 q 0,1.269698 0.4895221,2.32523 0.4895221,1.0402347 1.407376,1.8816007 0.9025564,0.841366 2.2640398,1.529756 1.3614833,0.673093 3.0748106,1.147318 1.1167223,0.305951 1.9274935,0.673093 0.826068,0.367141 1.376781,0.810771 0.535415,0.474224 0.795473,1.040234 0.260059,0.550713 0.260059,1.239103 z"
       style="font-style:normal;font-variant:normal;font-weight:bold;font-stretch:normal;font-size:31.32941437px;font-family:'Roboto Mono';-inkscape-font-specification:'Roboto Mono Bold';fill:#000000;fill-opacity:1;stroke-width:0.24867721"
       id="path815" />
  </g>

 </g>  </svg>
